<svg width="22" height="27" viewBox="0 0 22 27" fill="none" xmlns="http://www.w3.org/2000/svg">
<path d="M18.4292 14.53C18.4554 12.4988 19.5462 10.5769 21.2767 9.51297C20.185 7.95383 18.3565 6.9653 16.454 6.90577C14.425 6.69279 12.4579 8.11994 11.4239 8.11994C10.3699 8.11994 8.7779 6.92692 7.06361 6.96219C4.82909 7.03438 2.74596 8.30481 1.65883 10.2584C-0.678089 14.3044 1.06504 20.2506 3.30361 23.5211C4.42361 25.1226 5.73258 26.9115 7.44533 26.848C9.12136 26.7785 9.74733 25.7793 11.7704 25.7793C13.7748 25.7793 14.3621 26.848 16.1096 26.8077C17.908 26.7785 19.0411 25.1991 20.1218 23.5825C20.9266 22.4414 21.5458 21.1802 21.9566 19.8457C19.8431 18.9518 18.4317 16.8248 18.4292 14.53Z" fill="white"/>
<path d="M15.1284 4.75494C16.109 3.57777 16.5921 2.06472 16.4751 0.537109C14.977 0.694459 13.5932 1.41047 12.5993 2.54247C11.6275 3.6485 11.1217 5.13492 11.2173 6.60415C12.716 6.61958 14.1893 5.92298 15.1284 4.75494Z" fill="white"/>
</svg>
