<svg width="83" height="77" viewBox="0 0 83 77" fill="none" xmlns="http://www.w3.org/2000/svg">
<path d="M12.1612 9.88623L11.8824 9.24943C11.7864 8.96815 11.7181 8.71124 11.6775 8.47873C11.6368 8.24622 11.6367 7.9733 11.6771 7.65997C11.6721 7.45395 11.6838 7.26518 11.7122 7.09363C11.7407 6.92209 11.7834 6.72875 11.8405 6.51363C11.9076 6.29266 11.9885 6.01989 12.0831 5.69533C12.1713 5.39468 12.2847 5.16037 12.423 4.99239C12.5635 4.81645 12.6581 4.70084 12.7069 4.64555C12.9122 4.54651 13.0551 4.55455 13.1354 4.66966C13.2237 4.78689 13.2643 4.95542 13.2572 5.17525C13.258 5.3972 13.2238 5.62264 13.1545 5.85159C12.9523 6.71045 12.833 7.36955 12.7964 7.8289C12.7678 8.29036 12.8035 8.58978 12.9035 8.72717C12.9928 8.77643 13.0786 8.79065 13.1609 8.76983C13.2453 8.74104 13.3601 8.6777 13.5055 8.5798C13.6609 8.47605 13.8707 8.34409 14.1349 8.18391C14.4193 8.01202 14.7069 7.82818 14.9976 7.63239C15.2904 7.42863 15.5681 7.23365 15.8307 7.04745C16.1012 6.86337 16.3394 6.70482 16.5453 6.57179C16.7591 6.44088 16.9212 6.36022 17.0316 6.32981C17.0761 6.29046 17.1425 6.26541 17.2306 6.25467C17.3208 6.23597 17.4039 6.22815 17.4799 6.23124C17.5659 6.22847 17.6089 6.22708 17.6089 6.22708C17.6684 6.25992 17.6905 6.32122 17.6752 6.41097C17.6621 6.49276 17.6728 6.58089 17.7074 6.67536C17.7149 6.71145 17.7381 6.76877 17.777 6.8473C17.8158 6.92583 17.826 6.98396 17.8075 7.02169C17.8011 7.04559 17.7505 7.09185 17.6555 7.16048C17.5627 7.22113 17.4659 7.28073 17.3651 7.33928C17.2643 7.39782 17.1887 7.44173 17.1383 7.471C17.0114 7.53117 16.8069 7.64322 16.5246 7.80714C16.2525 7.96521 15.967 8.14108 15.6683 8.33476C15.3718 8.52047 15.1174 8.69179 14.9052 8.84871C14.4469 9.16208 14.0392 9.42918 13.6821 9.65001C13.3331 9.87297 13.1193 10.0039 13.0407 10.0427C13.0285 10.0566 12.9736 10.0548 12.8758 10.0374C12.7802 10.012 12.7041 10.0259 12.6473 10.0791L12.1612 9.88623ZM10.4301 13.7124C10.4003 13.696 10.3421 13.6422 10.2554 13.5509C10.1767 13.4619 10.1049 13.3789 10.0401 13.3019C10.0012 13.2234 9.9833 13.1462 9.98639 13.0702C9.99744 12.9964 10.0347 12.904 10.0983 12.7929C10.1619 12.6819 10.2501 12.5262 10.3629 12.3258C10.4195 12.1447 10.5145 11.9311 10.648 11.6851C10.7894 11.4412 10.9312 11.2443 11.0733 11.0943C11.0965 11.0067 11.1481 10.8925 11.2281 10.7517C11.3081 10.6108 11.3971 10.4681 11.4952 10.3236C11.6033 10.1732 11.6971 10.0446 11.7766 9.93772L12.1565 9.37331L12.7424 9.09376L13.2497 9.68883C13.2052 9.72818 13.1625 9.77656 13.1217 9.83396C13.0809 9.89136 13.0205 9.99047 12.9405 10.1313C12.8605 10.2721 12.7384 10.4913 12.5742 10.7889C12.4534 10.9871 12.3204 11.1991 12.1752 11.425C12.038 11.653 11.909 11.8661 11.7882 12.0643C11.6674 12.2625 11.5652 12.423 11.4814 12.5457C11.2907 12.8789 11.1281 13.1385 10.9935 13.3246C10.8668 13.5127 10.7581 13.6331 10.6674 13.6858C10.5825 13.7486 10.5034 13.7574 10.4301 13.7124ZM14.9279 13.8436C14.8244 13.8161 14.746 13.774 14.6928 13.7173C14.6476 13.6626 14.5907 13.5878 14.5221 13.4929C14.4129 13.2934 14.3349 13.0893 14.2879 12.8807C14.2488 12.6742 14.2592 12.5064 14.319 12.3773C14.3599 12.3199 14.3837 12.2623 14.3905 12.2044C14.4074 12.1407 14.4159 12.1088 14.4159 12.1088C14.3866 12.0584 14.381 12.0313 14.399 12.0276C14.4192 12.0159 14.4415 11.9962 14.4658 11.9685C14.5136 11.9812 14.5412 11.9416 14.5485 11.8498C14.5495 11.7818 14.6093 11.6527 14.728 11.4624C14.8568 11.2663 15.0063 11.0885 15.1765 10.929C15.2454 10.862 15.3446 10.7774 15.474 10.6753C15.6055 10.5652 15.744 10.4612 15.8893 10.3633C16.0448 10.2596 16.1809 10.1805 16.2976 10.1262C16.5412 10.0117 16.7604 9.9249 16.9551 9.86569C17.1579 9.80861 17.3522 9.78339 17.5381 9.79004C17.7239 9.79669 17.9085 9.82432 18.0917 9.87292C18.2829 9.92364 18.4214 10.0286 18.5071 10.1878C18.6692 10.316 18.7682 10.4574 18.8039 10.6119C18.8477 10.7685 18.853 10.9575 18.8198 11.1789C18.7804 11.4243 18.6783 11.7128 18.5136 12.0443C18.351 12.3679 18.0501 12.7145 17.611 13.0841C17.3357 13.3181 17.0814 13.4894 16.8479 13.5981C16.6144 13.7067 16.3642 13.7981 16.0972 13.8723C15.9003 13.9394 15.7031 13.9596 15.5055 13.9328C15.3079 13.906 15.1154 13.8763 14.9279 13.8436ZM16.5337 12.7088C16.7491 12.604 16.917 12.4694 17.0373 12.3052C17.1656 12.143 17.3063 11.9501 17.4594 11.7264C17.504 11.687 17.545 11.6126 17.5826 11.5032C17.6281 11.3959 17.6606 11.2894 17.6801 11.1837C17.7017 11.07 17.6907 10.9989 17.6472 10.9703C17.5903 10.8955 17.5217 10.8645 17.4416 10.8773C17.3635 10.8822 17.2581 10.9097 17.1255 10.9598C16.8336 11.0956 16.5492 11.2675 16.2724 11.4755C16.0055 11.6776 15.7826 11.9553 15.6037 12.3087C15.5269 12.5015 15.5067 12.6582 15.543 12.7787C15.5893 12.8933 15.6935 12.9508 15.8554 12.9511C16.0274 12.9455 16.2535 12.8648 16.5337 12.7088ZM21.3082 15.7021C21.244 15.7191 21.1714 15.6871 21.0906 15.606C21.0178 15.527 20.9523 15.4201 20.8943 15.2853C20.8639 15.1749 20.8454 15.0676 20.8389 14.9636C20.8424 14.8537 20.8706 14.6991 20.9235 14.4999C20.9737 14.3427 21.0022 14.2351 21.0091 14.1772C21.026 14.1135 20.9912 14.1 20.9047 14.1368C20.8282 14.1677 20.6651 14.2523 20.4152 14.3907C20.1632 14.5371 19.9265 14.6576 19.7052 14.7525C19.494 14.8414 19.3337 14.8671 19.2243 14.8296C19.1685 14.8148 19.1023 14.7588 19.0257 14.6618C18.9491 14.5647 18.8807 14.4528 18.8206 14.3259C18.7625 14.1912 18.7262 14.0707 18.7118 13.9645C18.7147 13.7606 18.7762 13.5125 18.8963 13.2203C19.0244 12.9303 19.1836 12.6356 19.3738 12.3364C19.5661 12.0293 19.7641 11.7492 19.9676 11.4961C20.1813 11.2373 20.3751 11.0371 20.549 10.8956C20.7331 10.7483 20.8719 10.6913 20.9654 10.7246C21.0966 10.7765 21.1942 10.8748 21.2581 11.0197C21.3321 11.1587 21.379 11.3034 21.3988 11.4536C21.4159 11.5178 21.4152 11.5688 21.3966 11.6065C21.3861 11.6464 21.3415 11.6857 21.263 11.7246C21.1659 11.8012 21.0413 11.9174 20.8891 12.0731C20.747 12.2231 20.5967 12.3879 20.4382 12.5676C20.2877 12.7494 20.1472 12.9253 20.0168 13.0954C19.8965 13.2596 19.8045 13.3973 19.741 13.5083C19.6774 13.6194 19.6616 13.6791 19.6934 13.6876C19.805 13.7172 19.9159 13.7168 20.0263 13.6863C20.1389 13.648 20.2848 13.5801 20.4641 13.4827C20.6758 13.3597 20.8676 13.2315 21.0395 13.098C21.2134 12.9565 21.3977 12.7922 21.5923 12.605C21.7382 12.4731 21.8922 12.3264 22.0545 12.1647C22.2247 12.0052 22.3363 11.8899 22.3893 11.8186C22.5558 11.6411 22.6807 11.5079 22.7639 11.4191C22.8472 11.3303 22.9318 11.2845 23.0178 11.2818C23.0576 11.2923 23.1134 11.3071 23.1851 11.3261C23.2568 11.3452 23.2927 11.3547 23.2927 11.3547C23.3384 11.3753 23.3846 11.426 23.4315 11.5066C23.4868 11.5554 23.5389 11.6161 23.5878 11.6888C23.6447 11.7636 23.6679 11.8209 23.6574 11.8607C23.6044 11.9319 23.5209 12.0377 23.4069 12.1781C23.303 12.3125 23.2256 12.4114 23.1747 12.4747C22.9325 12.7771 22.6953 13.0766 22.4631 13.3732C22.241 13.664 22.0527 13.9722 21.8981 14.2979C21.8526 14.4052 21.8137 14.5356 21.7815 14.6891C21.7594 14.8368 21.7558 14.9467 21.7708 15.0189C21.782 15.073 21.7951 15.1362 21.8101 15.2084C21.8351 15.2747 21.8663 15.3341 21.9035 15.3867C21.9626 15.4535 21.9427 15.5122 21.844 15.5628C21.7533 15.6154 21.6448 15.6549 21.5184 15.6811C21.4022 15.7014 21.3321 15.7084 21.3082 15.7021ZM24.6601 19.1878C24.4383 19.3166 24.1891 19.3401 23.9123 19.2581C23.6414 19.1863 23.4368 19.0254 23.2984 18.7755C23.1828 18.4719 23.1248 18.1922 23.1244 17.9363C23.114 17.6862 23.1488 17.4907 23.2288 17.3499C23.3087 17.2091 23.4125 17.1556 23.54 17.1894C23.5798 17.2 23.6353 17.2318 23.7066 17.2848C23.7698 17.3356 23.827 17.3934 23.878 17.4582C23.9291 17.5229 23.9462 17.5871 23.9293 17.6508C23.8976 17.7703 23.882 17.8771 23.8827 17.9711C23.8834 18.0651 23.9334 18.1338 24.0327 18.1772C24.1119 18.2323 24.2027 18.2436 24.3052 18.211C24.4134 18.1886 24.5304 18.1173 24.6561 17.9971C24.7632 17.9147 24.8942 17.7746 25.049 17.5768C25.2038 17.3791 25.3617 17.1694 25.5228 16.9478C25.6818 16.7341 25.8093 16.559 25.9052 16.4224C26.0875 16.1211 26.2509 15.8105 26.3954 15.4907C26.542 15.1629 26.707 14.8143 26.8902 14.445C26.9791 14.2384 27.0636 14.0646 27.1435 13.9238C27.2336 13.7771 27.2829 13.6879 27.2913 13.656C27.2998 13.6241 27.3207 13.5615 27.354 13.468C27.3894 13.3665 27.4376 13.2812 27.4986 13.2121C27.5303 13.0926 27.5822 12.9614 27.6542 12.8184C27.7342 12.6776 27.7784 12.5913 27.7868 12.5594C27.8171 12.5418 27.8649 12.5545 27.9302 12.5974C28.0057 12.6345 28.078 12.6835 28.1471 12.7445C28.2242 12.8076 28.2773 12.8643 28.3066 12.9147C28.3534 12.9954 28.3902 13.0819 28.4169 13.1742C28.4457 13.2586 28.4458 13.3866 28.4174 13.5581C28.399 13.7238 28.3256 13.9687 28.197 14.2928C28.1843 14.3406 28.1459 14.437 28.0819 14.582C28.0199 14.7191 27.9447 14.874 27.8563 15.0467C27.7679 15.2194 27.6805 15.3881 27.5941 15.5528C27.5099 15.7095 27.4411 15.8405 27.3876 15.9457C27.324 16.0568 27.2533 16.1787 27.1754 16.3116C27.0976 16.4444 27.0472 16.5377 27.0245 16.5913C27.0038 16.637 26.9506 16.7252 26.8648 16.856C26.781 16.9787 26.6933 17.1005 26.6016 17.2211C26.5179 17.3439 26.4646 17.4321 26.4419 17.4858C26.4255 17.5155 26.3815 17.5849 26.31 17.6938C26.2464 17.8049 26.1261 17.9691 25.949 18.1865C25.8838 18.2716 25.7642 18.3848 25.5903 18.5263C25.4142 18.6757 25.2373 18.8122 25.0596 18.9356C24.8798 19.067 24.7466 19.1511 24.6601 19.1878ZM28.6001 11.4703C28.54 11.3435 28.5565 11.1688 28.6496 10.9462C28.7507 10.7257 28.8872 10.5487 29.0591 10.4152C29.1944 10.3231 29.3517 10.2924 29.5313 10.323C29.7187 10.3556 29.8526 10.4295 29.933 10.5446C29.9847 10.7033 30.0045 10.8536 29.9925 10.9953C29.9805 11.1371 29.9138 11.2601 29.7923 11.3644C29.534 11.5346 29.2888 11.6231 29.0567 11.6298C28.8327 11.6386 28.6805 11.5854 28.6001 11.4703ZM29.2327 17.2793C29.1172 17.1037 29.0228 16.9294 28.9493 16.7564C28.8779 16.5755 28.8635 16.3243 28.906 16.003C28.9281 15.8554 28.9969 15.6604 29.1123 15.4182C29.2277 15.1759 29.3702 14.928 29.5398 14.6745C29.7115 14.413 29.8848 14.1776 30.0597 13.9681C30.2347 13.7587 30.3927 13.613 30.5338 13.531C30.6612 13.4369 30.806 13.3729 30.9685 13.3393C31.1389 13.3077 31.2942 13.3489 31.4346 13.4629C31.4947 13.5897 31.5005 13.7448 31.4519 13.928C31.4134 14.1054 31.3262 14.2571 31.1905 14.3831C30.9741 14.556 30.7628 14.7899 30.5567 15.0849C30.3606 15.374 30.2088 15.6408 30.1014 15.8852C29.997 16.0536 29.935 16.1907 29.9155 16.2964C29.8982 16.3941 29.9381 16.4686 30.0353 16.52C30.1761 16.6 30.3431 16.5974 30.5363 16.5122C30.7374 16.4291 30.9464 16.2841 31.1633 16.0773C31.3882 15.8725 31.6026 15.6267 31.8067 15.3397C31.884 15.2408 31.9548 15.1188 32.0188 14.9738C32.0908 14.8309 32.1523 14.7278 32.2032 14.6645C32.2853 14.5157 32.3858 14.4102 32.5046 14.3479C32.6335 14.2798 32.757 14.2485 32.8748 14.2542C32.9927 14.2599 33.0732 14.294 33.1163 14.3566C33.1796 14.4075 33.2415 14.4794 33.3022 14.5722C33.3628 14.6651 33.3609 14.801 33.2964 14.98C33.2182 15.2748 33.0879 15.5089 32.9054 15.6822C32.723 15.8556 32.5573 16.0462 32.4084 16.254C32.2923 16.4023 32.125 16.5668 31.9065 16.7477C31.688 16.9285 31.4628 17.0862 31.231 17.2209C31.0071 17.3577 30.811 17.4378 30.6427 17.4614C30.3816 17.5457 30.1313 17.5731 29.8917 17.5437C29.6543 17.5063 29.4347 17.4182 29.2327 17.2793ZM33.8129 19.0186C33.558 18.951 33.3377 18.8329 33.1522 18.6643C32.9767 18.4898 32.8475 18.302 32.7644 18.1009C32.6834 17.8918 32.664 17.7076 32.7063 17.5482C32.7253 17.4765 32.751 17.4279 32.7833 17.4024C32.8236 17.3789 32.8717 17.3746 32.9275 17.3894C32.9652 17.4079 33.0077 17.4405 33.055 17.4872C33.1023 17.5339 33.1486 17.5845 33.1938 17.6391C33.2981 17.7606 33.4227 17.8534 33.5677 17.9174C33.7128 17.9815 33.8503 18.0094 33.9804 18.0013C34.1126 17.9852 34.1994 17.9314 34.2406 17.84C34.2491 17.8082 34.2511 17.7362 34.2467 17.6242C34.2423 17.5122 34.2289 17.402 34.2065 17.2937C34.0855 16.9461 34.0359 16.6345 34.0578 16.3589C34.0819 16.0753 34.1219 15.7959 34.1778 15.5208C34.2074 15.4093 34.2919 15.2995 34.4314 15.1915C34.573 15.0756 34.7375 14.97 34.9248 14.8747C35.1301 14.7756 35.3493 14.6888 35.5823 14.6141C35.8233 14.5416 36.055 14.4879 36.2774 14.4531C36.4998 14.4183 36.6809 14.4109 36.8206 14.4309C36.964 14.4689 37.1133 14.517 37.2684 14.5752C37.4336 14.6276 37.5377 14.685 37.5808 14.7476C37.6691 14.8649 37.7347 15.0357 37.7775 15.2603C37.8202 15.4848 37.8237 15.6648 37.7877 15.8003C37.7708 15.864 37.7138 15.9342 37.6168 16.0108C37.5298 16.0815 37.4436 16.1653 37.3583 16.262C37.3116 16.3093 37.2679 16.3617 37.2271 16.4191C37.1863 16.4765 37.1415 16.5328 37.0927 16.5881C37.0153 16.687 36.915 16.7116 36.7917 16.6618C36.6786 16.6062 36.5839 16.5129 36.5078 16.3818C36.4338 16.2428 36.4158 16.1016 36.4539 15.9582C36.4856 15.8387 36.5489 15.7446 36.6438 15.676C36.7388 15.6074 36.7905 15.5571 36.799 15.5252C36.8032 15.5093 36.7984 15.4952 36.7846 15.483C36.7707 15.4709 36.7439 15.4595 36.7041 15.4489C36.6483 15.4341 36.5503 15.4337 36.4102 15.4477C36.2801 15.4559 36.1368 15.4818 35.9802 15.5255C35.8236 15.5693 35.6748 15.6322 35.5336 15.7141C35.4307 15.7806 35.3376 15.8583 35.2544 15.9471C35.1812 16.03 35.1298 16.1272 35.1003 16.2388C35.0707 16.3503 35.0557 16.4871 35.0554 16.649C35.0652 16.8051 35.0853 16.9384 35.1157 17.0488C35.1274 17.0689 35.1397 17.1191 35.1525 17.1992C35.1755 17.2735 35.1982 17.3648 35.2206 17.4731C35.3548 18.1569 35.2832 18.6197 35.0058 18.8617C34.7364 19.1057 34.3388 19.1581 33.8129 19.0186ZM37.8081 20.7689C37.4198 20.6574 37.1984 20.4793 37.1439 20.2346C37.0953 20 37.1371 19.7297 37.2695 19.4236C37.3574 19.2849 37.4212 19.1569 37.4609 19.0395C37.5106 18.9162 37.5676 18.8461 37.6318 18.829C37.6318 18.829 37.639 18.8181 37.6533 18.7963C37.6756 18.7766 37.6779 18.7517 37.6604 18.7214C37.6878 18.6179 37.7617 18.484 37.882 18.3197C37.9107 18.2761 37.9454 18.2256 37.9862 18.1682C38.0371 18.105 38.0625 18.0734 38.0625 18.0734C38.0396 17.9991 38.0533 17.9473 38.1037 17.918C38.1541 17.8887 38.2035 17.8634 38.2518 17.8421C38.3101 17.815 38.3257 17.7722 38.2986 17.7138C38.2911 17.6777 38.33 17.6113 38.4154 17.5146C38.5029 17.4098 38.5994 17.3033 38.7049 17.1948C38.8104 17.0863 38.8846 16.9994 38.9275 16.9341C38.9318 16.9181 38.9665 16.8676 39.0317 16.7826C39.0969 16.6975 39.1742 16.5987 39.2638 16.486C39.3534 16.3733 39.4358 16.2715 39.5111 16.1806C39.5944 16.0918 39.6482 16.0336 39.6726 16.006C39.7628 15.9873 39.7383 15.9509 39.5991 15.8969C39.46 15.843 39.3096 15.7988 39.1482 15.7645C38.9033 15.6911 38.7073 15.6263 38.5601 15.5702C38.4209 15.5162 38.3109 15.4487 38.2301 15.3675C38.1641 15.2306 38.187 15.096 38.2988 14.9636C38.4128 14.8233 38.5505 14.7703 38.712 14.8046C38.8177 14.8241 38.8984 14.8412 38.9542 14.856C39.0179 14.8729 39.0987 14.8901 39.1964 14.9075C39.3042 14.919 39.4688 14.9414 39.6903 14.9745L40.3125 15.0884L40.4022 14.8947C40.4934 14.808 40.5552 14.7519 40.5876 14.7264C40.6199 14.7009 40.6443 14.6732 40.6607 14.6435C40.6793 14.6057 40.7092 14.5412 40.7505 14.4498C40.7505 14.4498 40.8032 14.3956 40.9087 14.2871C41.0164 14.1707 41.0972 14.0429 41.1512 13.9037C41.289 13.7697 41.4107 13.6485 41.5162 13.54C41.6239 13.4236 41.6899 13.3515 41.7143 13.3239C41.9025 13.1606 42.0625 13.0879 42.1942 13.1058C42.3339 13.1258 42.4529 13.1915 42.5513 13.3029C42.6125 13.3617 42.6665 13.4315 42.7133 13.5121C42.7622 13.5848 42.782 13.671 42.7726 13.7709C42.7653 13.8627 42.6988 13.9688 42.5731 14.0889C42.5487 14.1166 42.509 14.17 42.4538 14.2492C42.4008 14.3204 42.359 14.3818 42.3282 14.4333C42.2656 14.4764 42.1816 14.5522 42.0761 14.6607C41.9806 14.7633 41.9041 14.8752 41.8463 14.9963C41.7467 15.1148 41.6847 15.1879 41.6603 15.2156C41.6359 15.2432 41.6078 15.2528 41.5759 15.2444C41.5707 15.3283 41.6079 15.3808 41.6876 15.4019C41.7694 15.4151 41.903 15.442 42.0883 15.4826C42.2439 15.5068 42.3517 15.5184 42.4117 15.5172C42.4818 15.5102 42.5514 15.5372 42.6205 15.5982C42.6456 15.6645 42.6433 15.7535 42.6137 15.865C42.5942 15.9707 42.5548 16.0711 42.4955 16.1662C42.4382 16.2534 42.3786 16.3015 42.3164 16.3106C42.2766 16.3001 42.1866 16.3018 42.0464 16.3158C41.9164 16.3239 41.7586 16.3077 41.5733 16.267L40.924 16.1588L40.6131 16.5112C40.5298 16.6 40.4567 16.683 40.3936 16.76C40.3326 16.8291 40.2921 16.8696 40.2719 16.8813C40.2592 16.9291 40.2123 16.9934 40.1312 17.0742C40.058 17.1571 39.9788 17.247 39.8934 17.3437C39.8097 17.4665 39.7211 17.5752 39.6278 17.6698C39.5425 17.7666 39.4998 17.815 39.4998 17.815C39.4679 17.8065 39.4456 17.8262 39.433 17.874C39.4474 17.9802 39.4165 18.0487 39.3401 18.0796C39.2939 18.0929 39.2485 18.1193 39.204 18.1586C39.1695 18.1921 39.1523 18.2089 39.1523 18.2089C39.1757 18.2492 39.1691 18.2901 39.1325 18.3316C39.1039 18.3751 39.0663 18.4206 39.0196 18.4679C39.0027 18.5317 38.9585 18.618 38.8869 18.7269C38.8234 18.838 38.7579 18.94 38.6906 19.0331C38.6606 19.1786 38.6442 19.2723 38.6416 19.3143C38.639 19.3562 38.6547 19.3774 38.6887 19.3779C38.7264 19.3965 38.7822 19.4113 38.856 19.4223C38.9298 19.4334 38.9827 19.4431 39.0146 19.4516C39.1489 19.4275 39.0191 19.6916 38.6254 20.2438C38.4451 20.4091 38.2743 20.5387 38.113 20.6323C37.9496 20.734 37.8479 20.7795 37.8081 20.7689ZM47.9131 22.3745C47.7421 22.3121 47.6042 22.2371 47.4995 22.1497C47.4048 22.0563 47.346 21.9085 47.3228 21.7063C47.3248 21.5703 47.3437 21.4346 47.3796 21.2992C47.4256 21.1579 47.4735 21.0256 47.5233 20.9024C47.5751 20.7711 47.6137 20.6577 47.6391 20.5621C47.6433 20.5462 47.6518 20.5143 47.6644 20.4665C47.6771 20.4187 47.6888 20.3749 47.6993 20.335C47.7151 20.2113 47.7022 20.1311 47.6608 20.0946C47.6294 20.0521 47.5566 20.0371 47.4425 20.0495C47.254 20.0847 47.0422 20.1437 46.8071 20.2263C46.5821 20.3031 46.3388 20.4006 46.0772 20.5188C45.8256 20.6312 45.563 20.7534 45.2892 20.8855C45.0632 21.0302 44.8905 21.1507 44.7711 21.247C44.6598 21.3453 44.5603 21.3829 44.4726 21.3597C44.4004 21.3746 44.3348 21.3487 44.2758 21.2819C44.2168 21.2151 44.1559 21.1392 44.0931 21.0543C44.0542 20.9758 44.0076 20.8782 43.9533 20.7614C43.9091 20.6388 43.8832 20.5595 43.8757 20.5234C43.9096 20.3959 43.9482 20.2825 43.9916 20.1831C44.0429 20.0859 44.1033 19.9868 44.1728 19.8858C44.2501 19.7869 44.3397 19.6743 44.4415 19.5477C44.4882 19.5004 44.5308 19.4521 44.5695 19.4026C44.6183 19.3473 44.6721 19.2891 44.731 19.228C44.7924 19.1249 44.8701 19.009 44.9639 18.8804C45.0657 18.7539 45.1613 18.6343 45.2509 18.5216C45.3935 18.3377 45.5088 18.1764 45.5967 18.0377C45.6847 17.899 45.7678 17.7462 45.8462 17.5794C45.8425 17.5613 45.8528 17.5385 45.8772 17.5108C45.9016 17.4832 45.9307 17.4696 45.9647 17.4701L45.9767 17.4733L45.9886 17.4764C46.055 17.4514 46.1596 17.4749 46.3025 17.5469C46.4555 17.6131 46.5634 17.6886 46.6262 17.7735C46.7555 17.9613 46.7855 18.1696 46.7163 18.3986C46.647 18.6275 46.4472 18.8986 46.1168 19.2118C46.0272 19.3245 45.9358 19.4281 45.8425 19.5228C45.7592 19.6115 45.7123 19.6759 45.7017 19.7157C45.7017 19.7157 45.74 19.7002 45.8164 19.6693C45.8928 19.6384 45.9833 19.6027 46.0878 19.5623C46.1945 19.5138 46.285 19.4781 46.3593 19.4552C46.4097 19.4259 46.5163 19.3774 46.6793 19.3098C46.8443 19.2341 47.0223 19.1577 47.2134 19.0805C47.4044 19.0032 47.5562 18.9454 47.6687 18.907C47.7733 18.8665 47.9017 18.8324 48.0541 18.8045C48.2085 18.7688 48.3017 18.7551 48.3336 18.7635C48.4132 18.7847 48.5015 18.8379 48.5982 18.9233C48.7029 19.0108 48.7925 19.107 48.867 19.212C48.9516 19.3112 48.9934 19.3948 48.9924 19.4628C48.9839 19.4946 48.9683 19.5374 48.9456 19.591C48.9249 19.6367 48.9093 19.6795 48.8988 19.7193C48.857 19.8447 48.8118 19.999 48.7632 20.1823C48.7247 20.3597 48.6811 20.54 48.6325 20.7232C48.586 20.8985 48.5278 21.0537 48.4579 21.1886C48.4579 21.1886 48.4598 21.1976 48.4635 21.2157C48.4694 21.2258 48.4731 21.2438 48.4747 21.2698C48.4647 21.2757 48.4565 21.2906 48.4501 21.3145C48.4539 21.3325 48.4557 21.3415 48.4557 21.3415C48.4569 21.4015 48.458 21.4615 48.4592 21.5215C48.4683 21.5837 48.4792 21.6548 48.4921 21.7349C48.5071 21.8071 48.5207 21.9003 48.5331 22.0145C48.4977 22.1159 48.4104 22.2036 48.2714 22.2776C48.1425 22.3458 48.0231 22.3781 47.9131 22.3745ZM51.5932 23.4017C51.3183 23.4737 51.0422 23.4858 50.7649 23.4379C50.4978 23.3841 50.2603 23.2827 50.0525 23.1338C49.8468 22.9769 49.6965 22.7878 49.6017 22.5665C49.5495 22.4418 49.5171 22.2584 49.5046 22.0163C49.4942 21.7662 49.5646 21.4523 49.716 21.0746C49.861 20.7207 50.0708 20.3798 50.3454 20.0519C50.628 19.726 50.9388 19.4545 51.2778 19.2374C51.6168 19.0203 51.9554 18.9012 52.2936 18.88C52.4157 18.8698 52.5346 18.8715 52.6504 18.8851C52.7762 18.8929 52.9327 18.9301 53.1197 18.9968C53.2966 19.0693 53.4472 19.1604 53.5716 19.2701C53.6981 19.3719 53.7827 19.4711 53.8253 19.5677C53.919 19.729 53.9699 19.8747 53.978 20.0047C53.9862 20.1348 53.9715 20.2546 53.9339 20.364C53.8264 20.6084 53.638 20.8526 53.3686 21.0967C53.1072 21.3429 52.7901 21.4933 52.4174 21.548C52.2672 21.5679 52.0983 21.5614 51.9109 21.5288C51.7234 21.4961 51.4787 21.4056 51.1769 21.2574C50.9963 21.1668 50.8635 21.1529 50.7787 21.2157C50.7018 21.2806 50.6366 21.4296 50.5833 21.6628C50.5612 21.8104 50.5593 21.9464 50.5775 22.0706C50.6058 22.1889 50.6864 22.2871 50.8192 22.3649C50.994 22.4454 51.1244 22.4843 51.2105 22.4815C51.2986 22.4708 51.4098 22.4534 51.5441 22.4293C51.6184 22.4063 51.6898 22.3784 51.7582 22.3454C51.8347 22.3145 51.9071 22.2825 51.9755 22.2495C52.052 22.2186 52.1133 22.1965 52.1594 22.1831C52.2077 22.1618 52.2529 22.1525 52.2948 22.1551C52.3368 22.1577 52.3776 22.1643 52.4175 22.1748C52.503 22.206 52.574 22.276 52.6304 22.3848C52.6869 22.4936 52.7165 22.591 52.7192 22.677C52.7023 22.7407 52.6382 22.8218 52.5268 22.9202C52.4176 23.0106 52.2783 23.1016 52.109 23.1931C51.9499 23.2788 51.7779 23.3483 51.5932 23.4017ZM52.1447 20.6954C52.2068 20.6862 52.3013 20.6516 52.4281 20.5914C52.5629 20.5334 52.6868 20.4682 52.7998 20.3958C52.9149 20.3155 52.9798 20.2474 52.9946 20.1916C53.0179 20.104 52.9782 20.0125 52.8756 19.917C52.7809 19.8237 52.6367 19.7727 52.4429 19.7639C52.3749 19.7629 52.2876 19.7867 52.181 19.8351C52.0743 19.8836 51.9645 19.944 51.8515 20.0164C51.7406 20.0808 51.6416 20.1483 51.5547 20.2191C51.4698 20.2818 51.4091 20.334 51.3725 20.3754C51.3938 20.4237 51.4491 20.4725 51.5383 20.5218C51.6276 20.571 51.728 20.6104 51.8396 20.64C51.9591 20.6717 52.0608 20.6902 52.1447 20.6954ZM54.3648 24.6229C53.9266 24.5066 53.6218 24.2894 53.4503 23.971C53.2869 23.6548 53.2749 23.2337 53.4144 22.7079C53.4905 22.421 53.6257 22.12 53.8202 21.8049C54.0226 21.4919 54.2547 21.1953 54.5167 20.9151C54.7866 20.637 55.0608 20.407 55.3393 20.2251C55.6199 20.0351 55.8805 19.9209 56.1209 19.8823C56.2112 19.8636 56.3022 19.8579 56.3941 19.8652C56.4961 19.8667 56.5909 19.879 56.6785 19.9023C56.7741 19.9276 56.8756 19.9631 56.9829 20.0086C57.1003 20.0483 57.2055 20.1017 57.2985 20.1691C57.467 20.2734 57.5978 20.4233 57.691 20.6185C57.7921 20.8159 57.8026 21.066 57.7223 21.3688C57.7011 21.4484 57.6699 21.534 57.6286 21.6253C57.5894 21.7088 57.5383 21.789 57.4752 21.8661C57.3019 22.1015 57.076 22.3103 56.7975 22.4922C56.5269 22.6763 56.2635 22.7855 56.007 22.8198C55.9348 22.8348 55.8648 22.8418 55.7968 22.8408C55.7389 22.834 55.6781 22.8221 55.6144 22.8052C55.447 22.7609 55.302 22.6968 55.1792 22.6131C55.0644 22.5315 54.9618 22.436 54.8714 22.3268L54.798 22.2178L54.7065 22.3214C54.6106 22.458 54.537 22.5749 54.4856 22.6722C54.4422 22.7715 54.4141 22.8451 54.4015 22.8929C54.3761 22.9885 54.3537 23.0892 54.3342 23.1948C54.3168 23.2926 54.3196 23.3786 54.3425 23.4529C54.3638 23.5012 54.3952 23.5436 54.4366 23.5802C54.4861 23.6189 54.5506 23.6488 54.6303 23.6699C54.6781 23.6826 54.7219 23.6942 54.7618 23.7048C54.8117 23.7095 54.8536 23.7121 54.8876 23.7126C55.0395 23.7188 55.1687 23.6976 55.2754 23.6492C55.3922 23.5948 55.5097 23.5535 55.6281 23.5252L55.6822 23.514L55.6798 23.475C55.8342 23.4392 55.9375 23.4197 55.9895 23.4164C56.0437 23.4052 56.0848 23.3948 56.1129 23.3852C56.1533 23.3618 56.1933 23.3553 56.2332 23.3659C56.3489 23.3796 56.4481 23.44 56.5305 23.5471C56.623 23.6484 56.6545 23.7548 56.6249 23.8664C56.6122 23.9142 56.5563 23.9803 56.4571 24.0649C56.3659 24.1516 56.2548 24.233 56.1237 24.3091C56.0028 24.3793 55.8831 24.4286 55.7647 24.4569C55.7387 24.4585 55.7116 24.4641 55.6835 24.4737C55.6575 24.4754 55.6304 24.481 55.6023 24.4906L55.6143 24.4937C55.5172 24.5703 55.4328 24.5991 55.3611 24.5801L55.2655 24.5547C55.2188 24.6021 55.0994 24.6344 54.9072 24.6516C54.7129 24.6768 54.5321 24.6672 54.3648 24.6229ZM55.7501 21.9074C55.8218 21.9265 55.8888 21.9314 55.9509 21.9223C56.021 21.9153 56.0881 21.9033 56.1523 21.8862C56.3795 21.8015 56.5495 21.6589 56.6623 21.4586C56.7751 21.2583 56.7985 21.0896 56.7325 20.9527C56.7229 20.9246 56.7072 20.9034 56.6854 20.8891C56.6657 20.8668 56.64 20.8515 56.6081 20.843C56.5204 20.8198 56.4135 20.8212 56.2871 20.8474C56.1688 20.8757 56.044 20.9279 55.913 21.004C55.7819 21.0801 55.6536 21.1783 55.5279 21.2984L55.306 21.5082C55.324 21.5045 55.337 21.5037 55.345 21.5058C55.363 21.502 55.3761 21.5012 55.384 21.5033C55.4557 21.5223 55.4972 21.5589 55.5084 21.6131C55.5196 21.6672 55.5348 21.7224 55.554 21.7787C55.5812 21.837 55.6466 21.88 55.7501 21.9074ZM60.6395 26.044C60.5178 26.0203 60.4052 25.9947 60.3017 25.9672C60.2061 25.9418 60.1346 25.9058 60.0873 25.8592C59.9755 25.7016 59.9053 25.5807 59.8765 25.4963C59.8557 25.414 59.8569 25.329 59.8801 25.2414C59.9177 25.132 59.9513 25.0215 59.9809 24.9099C60.0125 24.7904 60.0368 24.6988 60.0538 24.635C60.0303 24.5947 59.9571 24.6137 59.834 24.6919C59.7109 24.7701 59.573 24.8401 59.4201 24.9019C59.0992 25.1153 58.8262 25.2603 58.6012 25.3371C58.3782 25.4059 58.185 25.4271 58.0214 25.4008C57.8557 25.3824 57.6953 25.3442 57.5402 25.286C57.401 25.232 57.2925 25.1265 57.2148 24.9694C57.145 24.8145 57.1066 24.638 57.0994 24.4399C57.1002 24.244 57.1318 24.0605 57.1942 23.8894C57.3207 23.5733 57.4706 23.2976 57.6439 23.0621C57.8193 22.8187 58.0497 22.577 58.3351 22.3372C58.4645 22.2351 58.6289 22.1294 58.8284 22.0203C59.0359 21.9133 59.2522 21.8214 59.4772 21.7447C59.7043 21.6599 59.901 21.6097 60.0672 21.5941C60.3257 21.5518 60.5296 21.5547 60.6789 21.6029C60.8361 21.6531 60.9851 21.7182 61.1259 21.7982C61.2227 21.8835 61.3029 21.9347 61.3667 21.9516C61.4384 21.9706 61.5008 21.9445 61.5538 21.8733C61.6185 21.8222 61.6754 21.752 61.7247 21.6628C61.774 21.5735 61.8381 21.4924 61.9171 21.4196L62.3861 20.7125C62.5308 20.5206 62.6999 20.3011 62.8933 20.0539C63.0868 19.8068 63.3047 19.532 63.5469 19.2295C63.8126 18.9674 64.0113 18.8452 64.143 18.8631C64.2827 18.8831 64.4031 18.9918 64.5042 19.1892C64.5745 19.3101 64.5946 19.4434 64.5645 19.5889C64.5445 19.7286 64.4664 19.8784 64.3301 20.0384C64.2511 20.1113 64.1618 20.207 64.0621 20.3255C63.9646 20.4361 63.8487 20.5674 63.7146 20.7195C63.572 20.9034 63.4254 21.0862 63.2749 21.268C63.1323 21.4519 62.9805 21.6547 62.8193 21.8763C62.7537 21.9954 62.6707 22.1311 62.5706 22.2837C62.4784 22.4383 62.3984 22.5791 62.3306 22.7061C62.2729 22.8273 62.2133 22.9394 62.1519 23.0425C62.1005 23.1397 62.0589 23.1841 62.027 23.1756C61.9485 23.2145 61.857 23.3182 61.7527 23.4866C61.6504 23.6471 61.5529 23.8217 61.4603 24.0103C61.3756 24.201 61.3044 24.357 61.2466 24.4781C61.2054 24.5695 61.1575 24.7018 61.103 24.875C61.0507 25.0402 61.0034 25.2024 60.9611 25.3618C60.921 25.5132 60.8935 25.6168 60.8787 25.6725C60.8386 25.8239 60.7981 25.9283 60.7573 25.9857C60.7265 26.0372 60.6873 26.0567 60.6395 26.044ZM58.1889 24.3835C58.3721 24.4321 58.5635 24.4018 58.763 24.2927C58.9726 24.1777 59.2002 24.059 59.4459 23.9366C59.5971 23.8488 59.7555 23.75 59.921 23.6404C60.0886 23.5229 60.2432 23.4061 60.3849 23.2902C60.5344 23.1763 60.6548 23.0761 60.7461 22.9894C60.8373 22.9027 60.8871 22.8435 60.8955 22.8116C60.9061 22.7718 60.8838 22.7275 60.8285 22.6787C60.7811 22.632 60.7198 22.5902 60.6443 22.5531C60.571 22.5081 60.5003 22.485 60.4324 22.4841C60.2263 22.4891 60.0488 22.5316 59.8997 22.6114C59.7586 22.6934 59.5487 22.8254 59.2702 23.0073C58.9854 23.2132 58.7475 23.4187 58.5566 23.624C58.3658 23.8292 58.2343 24.0033 58.1623 24.1462C58.1003 24.2833 58.1092 24.3624 58.1889 24.3835ZM66.0519 27.6074C65.9462 27.5879 65.8658 27.5538 65.8105 27.505C65.7531 27.4642 65.684 27.4032 65.6031 27.3221C65.4638 27.1402 65.3608 26.9337 65.2941 26.7029C65.2354 26.4741 65.2279 26.293 65.2718 26.1597C65.3068 26.0922 65.3237 26.0285 65.3226 25.9685C65.3294 25.9106 65.3328 25.8817 65.3328 25.8817C65.2956 25.8291 65.286 25.801 65.304 25.7973C65.3242 25.7856 65.3425 25.7648 65.3589 25.7351C65.4268 25.736 65.4464 25.6943 65.4176 25.6099C65.4106 25.5399 65.4606 25.3996 65.5676 25.1892C65.6847 24.9729 65.8134 24.7768 65.9539 24.6009C66.017 24.5238 66.1034 24.4231 66.2131 24.2987C66.3308 24.1764 66.4565 24.0562 66.5902 23.9382C66.7259 23.8122 66.8453 23.7159 66.9482 23.6494C67.1763 23.4967 67.375 23.3745 67.5443 23.283C67.7215 23.1935 67.9062 23.1402 68.0984 23.1229C68.2746 23.1015 68.4414 23.1158 68.5986 23.1661C68.7638 23.2184 68.8964 23.3133 68.9964 23.4507C69.1729 23.5572 69.3209 23.6902 69.4406 23.8499C69.5624 24.0016 69.6237 24.1884 69.6245 24.4104C69.627 24.6583 69.574 24.9385 69.4656 25.2508C69.3672 25.5574 69.1251 25.9238 68.7391 26.3502C68.5053 26.6207 68.2874 26.8316 68.0853 26.9826C67.8911 27.1358 67.6672 27.2726 67.4136 27.3929C67.2284 27.4803 67.0036 27.54 66.7392 27.5722C66.4749 27.6045 66.2458 27.6162 66.0519 27.6074ZM67.5703 26.0785C67.7119 25.9626 67.8286 25.8443 67.9203 25.7236C68.02 25.6051 68.1294 25.4337 68.2485 25.2095C68.2957 25.1282 68.3362 25.0238 68.37 24.8963C68.4118 24.7709 68.4384 24.6544 68.4499 24.5466C68.4716 24.4329 68.4595 24.3657 68.4138 24.3451C68.3208 24.2778 68.2133 24.2493 68.0911 24.2595C67.9791 24.2639 67.8303 24.3268 67.6446 24.4481C67.4791 24.5577 67.3396 24.6657 67.2261 24.772C67.1227 24.8725 67.0159 25.0019 66.9056 25.1603C66.8055 25.3128 66.6836 25.515 66.5401 25.7669C66.4066 26.0129 66.3466 26.223 66.3601 26.3972C66.3816 26.5734 66.4895 26.6489 66.6838 26.6237C66.8781 26.5985 67.1736 26.4168 67.5703 26.0785ZM69.9685 28.0961C69.9366 28.0877 69.8683 28.0397 69.7636 27.9522C69.661 27.8568 69.598 27.7889 69.5746 27.7486C69.5357 27.6701 69.5178 27.5928 69.5209 27.5169C69.5261 27.433 69.5583 27.2795 69.6174 27.0564C69.685 26.8014 69.8129 26.5284 70.001 26.2371C70.1912 25.9379 70.4817 25.5502 70.8724 25.0739L71.6255 24.2119C71.6801 24.1667 71.7286 24.1284 71.7711 24.097C71.8156 24.0577 71.8631 24.0234 71.9135 23.9941C71.9294 23.9983 71.9493 24.0036 71.9732 24.0099C72.0051 24.0184 72.028 24.0287 72.0418 24.0409C72.1114 24.0679 72.2113 24.1413 72.3415 24.2611C72.4798 24.3831 72.5437 24.5279 72.5333 24.6957C72.5058 24.7993 72.4571 24.9186 72.3872 25.0535C72.3194 25.1805 72.1763 25.3344 71.9578 25.5153C71.8729 25.578 71.7785 25.6767 71.6746 25.8111C71.5787 25.9477 71.4889 26.0774 71.4051 26.2002C71.3929 26.214 71.3585 26.2475 71.3017 26.3007C71.2551 26.348 71.2073 26.3993 71.1586 26.4546C71.1119 26.5019 71.0865 26.5335 71.0822 26.5495L71.0059 26.6444L71.6529 26.2787C72.1066 26.0153 72.477 25.8406 72.7641 25.7547C73.0512 25.6688 73.2753 25.66 73.4363 25.7283C73.6052 25.7987 73.7182 25.9353 73.7753 26.138C73.81 26.2325 73.8266 26.3307 73.8251 26.4327C73.8258 26.5267 73.8142 26.6345 73.7905 26.7561C73.7668 26.8777 73.7226 27.028 73.6581 27.2071L73.4774 27.8883C73.6394 27.8886 73.7634 27.8874 73.8494 27.8846C73.9375 27.8739 74.0246 27.8671 74.1106 27.8643C74.1785 27.8653 74.2465 27.8663 74.3145 27.8672C74.3904 27.8703 74.4812 27.8816 74.5869 27.9011C74.5515 28.0026 74.4738 28.1184 74.354 28.2487C74.2342 28.3789 74.0945 28.5039 73.9348 28.6236C73.7831 28.7454 73.6258 28.8401 73.4629 28.9078C73.3079 28.9775 73.1747 28.9976 73.0631 28.968C72.9595 28.9406 72.8485 28.877 72.7299 28.7773C72.6135 28.6697 72.5339 28.5036 72.4911 28.2791C72.4867 28.1671 72.4866 28.0391 72.4906 27.8952C72.4947 27.7513 72.5168 27.6036 72.5569 27.4523L72.6964 26.9264C72.7091 26.8786 72.7135 26.8457 72.7098 26.8276C72.7161 26.8037 72.7153 26.7907 72.7074 26.7886C72.6755 26.7802 72.5497 26.8363 72.3301 26.9572C72.1184 27.0801 71.9006 27.21 71.6767 27.3467C71.2087 27.632 70.827 27.8335 70.5314 27.9512C70.2438 28.0711 70.0561 28.1194 69.9685 28.0961ZM77.0947 30.1652C76.8197 30.2373 76.5436 30.2493 76.2664 30.2014C75.9992 30.1476 75.7618 30.0462 75.5539 29.8973C75.3482 29.7404 75.198 29.5513 75.1032 29.33C75.051 29.2053 75.0186 29.0219 75.0061 28.7798C74.9956 28.5297 75.0661 28.2158 75.2174 27.8381C75.3625 27.4843 75.5723 27.1434 75.8469 26.8154C76.1294 26.4895 76.4402 26.218 76.7792 26.0009C77.1182 25.7838 77.4568 25.6647 77.795 25.6435C77.9171 25.6333 78.0361 25.635 78.1518 25.6486C78.2777 25.6564 78.4341 25.6936 78.6211 25.7603C78.798 25.8328 78.9487 25.9239 79.0731 26.0337C79.1996 26.1354 79.2842 26.2346 79.3268 26.3312C79.4204 26.4925 79.4713 26.6382 79.4795 26.7683C79.4876 26.8983 79.4729 27.0181 79.4354 27.1275C79.3279 27.3719 79.1395 27.6162 78.8701 27.8602C78.6086 28.1064 78.2916 28.2569 77.9189 28.3115C77.7687 28.3314 77.5998 28.325 77.4123 28.2923C77.2248 28.2596 76.9802 28.1692 76.6784 28.0209C76.4978 27.9303 76.365 27.9165 76.2801 27.9792C76.2032 28.0441 76.1381 28.1931 76.0848 28.4263C76.0627 28.5739 76.0607 28.7099 76.079 28.8341C76.1073 28.9525 76.1878 29.0506 76.3207 29.1285C76.4955 29.2089 76.6259 29.2478 76.7119 29.245C76.8 29.2343 76.9113 29.2169 77.0456 29.1928C77.1199 29.1699 77.1913 29.1419 77.2597 29.1089C77.3361 29.078 77.4086 29.046 77.477 29.013C77.5534 28.9821 77.6147 28.96 77.6609 28.9467C77.7092 28.9254 77.7543 28.916 77.7963 28.9186C77.8382 28.9212 77.8791 28.9278 77.9189 28.9383C78.0045 28.9696 78.0755 29.0395 78.1319 29.1483C78.1883 29.2571 78.2179 29.3545 78.2207 29.4405C78.2038 29.5042 78.1396 29.5853 78.0283 29.6837C77.919 29.7741 77.7798 29.8651 77.6105 29.9566C77.4513 30.0423 77.2794 30.1119 77.0947 30.1652ZM77.6461 27.4589C77.7083 27.4498 77.8027 27.4151 77.9295 27.355C78.0643 27.2969 78.1882 27.2317 78.3012 27.1593C78.4163 27.079 78.4813 27.0109 78.4961 26.9552C78.5193 26.8675 78.4797 26.776 78.377 26.6805C78.2824 26.5872 78.1382 26.5362 77.9444 26.5274C77.8764 26.5264 77.7891 26.5502 77.6824 26.5986C77.5758 26.6471 77.4659 26.7075 77.3529 26.7799C77.242 26.8443 77.1431 26.9119 77.0561 26.9826C76.9712 27.0454 76.9105 27.0975 76.8739 27.1389C76.8952 27.1872 76.9505 27.236 77.0398 27.2853C77.1291 27.3345 77.2295 27.374 77.341 27.4035C77.4605 27.4352 77.5622 27.4537 77.6461 27.4589ZM23.9667 32.8964C23.8833 32.8572 23.8015 32.7801 23.7211 32.6649C23.6429 32.5419 23.5748 32.4129 23.5167 32.2781C23.4687 32.1375 23.4434 32.0242 23.4406 31.9381C23.4448 31.9222 23.4381 31.8991 23.4206 31.8689C23.411 31.8408 23.4062 31.8267 23.4062 31.8267C23.3807 31.7943 23.3882 31.6855 23.4288 31.5001C23.4796 31.3089 23.5475 31.1009 23.6327 30.8762C23.7179 30.6515 23.7944 30.4756 23.8622 30.3486C23.9358 30.2317 24.041 30.0763 24.1777 29.8823C24.3166 29.6803 24.4371 29.4991 24.5394 29.3386L25.0459 28.731L24.6027 28.4728C24.5512 28.442 24.5118 28.3975 24.4847 28.3391C24.4655 28.2828 24.4601 28.2388 24.4686 28.2069C24.4855 28.1432 24.5456 28.0611 24.649 27.9606C24.7524 27.8601 24.8201 27.814 24.8519 27.8225C24.8897 27.841 24.9603 27.864 25.0639 27.8915C25.1754 27.9211 25.2841 27.9456 25.3897 27.9651C25.4954 27.9846 25.5613 27.9936 25.5873 27.992C25.6234 27.9845 25.6606 27.973 25.6988 27.9576C25.7391 27.9341 25.7746 27.8967 25.8053 27.8451C25.8684 27.768 25.9222 27.7098 25.9668 27.6705C26.0113 27.6311 26.0742 27.571 26.1553 27.4902C26.2385 27.4014 26.3056 27.3254 26.3565 27.2621C26.4154 27.201 26.5015 27.1173 26.615 27.0109C26.6696 26.9657 26.7314 26.9096 26.8004 26.8426C26.8693 26.7756 26.947 26.7237 27.0335 26.687C27.1221 26.6423 27.2493 26.6291 27.415 26.6474C27.5907 26.6599 27.7246 26.7338 27.8167 26.8691C27.8593 26.9657 27.8751 27.0509 27.864 27.1247C27.853 27.1985 27.7968 27.2817 27.6955 27.3742C27.5958 27.4928 27.4874 27.5962 27.3702 27.6845C27.263 27.7669 27.1556 27.8664 27.048 27.9828C26.874 28.1243 26.8237 28.2175 26.8971 28.2626C26.9704 28.3076 27.1977 28.3508 27.579 28.3923C27.8206 28.4137 27.9816 28.482 28.0619 28.5971C28.1423 28.7122 28.1724 28.8396 28.1525 28.9793C28.1256 29.1768 28.0751 29.2871 28.0008 29.31C27.9265 29.333 27.7379 29.3043 27.4352 29.224C27.2355 29.2051 27.0669 29.1817 26.9293 29.1538C26.7939 29.1179 26.6943 29.0914 26.6305 29.0745C26.5249 29.055 26.4561 29.041 26.4242 29.0326C26.3923 29.0241 26.3424 29.0194 26.2744 29.0185C26.2065 29.0175 26.1513 29.0327 26.1088 29.0641C26.0765 29.0896 26.0359 29.13 25.9871 29.1853C25.9468 29.2087 25.8768 29.2797 25.7772 29.3983C25.6775 29.5168 25.5587 29.6431 25.4209 29.7771C25.2206 30.0821 25.0394 30.3794 24.8773 30.669C24.7253 30.9528 24.5812 31.2386 24.4452 31.5266C24.3811 31.6717 24.3555 31.7843 24.3684 31.8644C24.3913 31.9387 24.4843 32.006 24.6474 32.0663C24.7329 32.0976 24.8604 32.1314 25.0298 32.1678C25.2014 32.1962 25.3472 32.2093 25.4672 32.207C25.5654 32.1904 25.6676 32.1749 25.7737 32.1604C25.882 32.138 25.9823 32.1134 26.0747 32.0867C26.157 32.0659 26.2392 32.0451 26.3215 32.0243C26.4059 31.9955 26.4481 31.9811 26.4481 31.9811C26.5048 31.9279 26.5574 31.9546 26.6059 32.0613C26.6644 32.1621 26.697 32.2646 26.7035 32.3686C26.6781 32.4642 26.6276 32.5745 26.5518 32.6994C26.4782 32.8163 26.2948 32.9126 26.0018 32.9884C25.5841 33.1164 25.1897 33.1568 24.8185 33.1095C24.4472 33.0622 24.1633 32.9912 23.9667 32.8964ZM28.1859 33.8235C28.118 33.8225 28.0322 33.8083 27.9286 33.7809C27.8272 33.7454 27.7387 33.7092 27.6632 33.6721C27.5979 33.6292 27.5684 33.5958 27.5747 33.5719C27.5853 33.532 27.5706 33.5068 27.5308 33.4963C27.5308 33.4963 27.4954 33.4528 27.4247 33.3658C27.3561 33.2708 27.2901 33.1979 27.2269 33.147C27.1847 33.0165 27.1708 32.8763 27.1849 32.7265C27.2091 32.5709 27.3266 32.3207 27.5375 31.9758C27.6131 31.723 27.7556 31.4751 27.965 31.2321C28.1765 30.9812 28.4218 30.7478 28.7008 30.5318C28.9798 30.3159 29.2583 30.1339 29.5363 29.9859C29.8165 29.83 30.0579 29.7234 30.2607 29.6664C30.4018 29.5844 30.5651 29.5637 30.7504 29.6044C30.9438 29.6471 31.1016 29.7273 31.2239 29.8451C31.293 29.906 31.3595 30.0089 31.4234 30.1538C31.4873 30.2987 31.5451 30.4505 31.5968 30.6092C31.6507 30.7599 31.6878 30.8934 31.7081 31.0096C31.7087 31.1036 31.7075 31.1886 31.7044 31.2645C31.7114 31.3346 31.7062 31.4185 31.6889 31.5162C31.6715 31.6139 31.6255 31.7552 31.5508 31.9401C31.473 32.073 31.398 32.2109 31.326 32.3538C31.2641 32.4909 31.213 32.6351 31.1729 32.7865C31.1168 32.9336 31.1042 33.0454 31.1351 33.1218C31.174 33.2004 31.2526 33.2255 31.3709 33.1972C31.4792 33.1747 31.5799 33.1972 31.6729 33.2645C31.768 33.3238 31.8228 33.4066 31.8373 33.5127C31.8619 33.6131 31.8193 33.7254 31.7095 33.8498C31.6343 33.9407 31.5321 34.0202 31.4032 34.0884C31.2743 34.1565 31.1376 34.2056 30.9932 34.2355C30.851 34.2574 30.7201 34.2526 30.6006 34.2209C30.5129 34.1976 30.4337 34.1425 30.363 34.0555C30.2944 33.9606 30.24 33.8438 30.2 33.7053C30.16 33.5668 30.1351 33.4195 30.1254 33.2634L30.1266 32.9695L29.5917 33.2498C29.4586 33.3338 29.3275 33.4099 29.1986 33.4781C29.0797 33.5404 29.0031 33.5883 28.9686 33.6218C28.9097 33.6829 28.8132 33.7255 28.6788 33.7496C28.5525 33.7758 28.3882 33.8004 28.1859 33.8235ZM28.8129 32.7618C28.9695 32.718 29.1104 32.6531 29.2356 32.5669C29.3687 32.4828 29.5011 32.3857 29.6326 32.2756C29.7663 32.1576 29.91 32.0337 30.0638 31.9039C30.2478 31.7566 30.3826 31.6345 30.4679 31.5378C30.5612 31.4431 30.6407 31.3363 30.7064 31.2173C30.6978 31.1212 30.6783 31.0179 30.6479 30.9075C30.6196 30.7892 30.5786 30.7186 30.5249 30.6958C30.4134 30.6662 30.26 30.698 30.0647 30.7912C29.8774 30.8865 29.6583 31.0374 29.4074 31.2437C29.365 31.2751 29.3082 31.3283 29.2372 31.4032C29.1661 31.4782 29.0961 31.5492 29.0272 31.6162C28.9684 31.6773 28.9278 31.7177 28.9055 31.7374C28.8732 31.7629 28.8172 31.8291 28.7377 31.9359C28.6683 32.0369 28.6018 32.1429 28.5382 32.254C28.4768 32.3571 28.4397 32.4325 28.427 32.4804C28.4144 32.5282 28.4046 32.581 28.3978 32.6389C28.3989 32.6989 28.4293 32.7453 28.4888 32.7781C28.5483 32.811 28.6563 32.8055 28.8129 32.7618ZM33.1595 35.1426C33.0496 35.1391 32.9184 35.0872 32.7659 34.987C32.6154 34.8789 32.4722 34.7599 32.3361 34.63C32.2101 34.4943 32.1266 34.3911 32.0856 34.3205C32.0467 34.242 32.0456 34.182 32.0821 34.1405C32.1208 34.0911 32.1681 34.0738 32.2238 34.0886C32.2557 34.097 32.316 34.0789 32.4046 34.0342C32.4953 33.9815 32.5729 33.8656 32.6375 33.6866C32.683 33.5793 32.7283 33.4889 32.7733 33.4156C32.8284 33.3364 32.8602 33.2809 32.8686 33.249C32.883 33.2272 32.9078 33.1656 32.9433 33.0641C32.9888 32.9568 33.038 32.8675 33.091 32.7963C33.161 32.6614 33.2574 32.4908 33.3803 32.2846C33.5053 32.0705 33.6282 31.8643 33.749 31.6661C33.8799 31.462 33.9811 31.3055 34.0526 31.1965C34.0918 31.1131 34.1572 31.0111 34.2489 30.8904C34.3406 30.7698 34.417 30.6749 34.4779 30.6058C34.6168 30.4038 34.7962 30.1614 35.0161 29.8787C35.2441 29.598 35.476 29.3184 35.7119 29.0398C35.9499 28.7533 36.1543 28.5133 36.325 28.3198C36.5058 28.1204 36.6185 28.0011 36.663 27.9617C36.7437 27.9149 36.8536 27.9185 36.9928 27.9724C37.132 28.0264 37.2338 28.1088 37.2982 28.2197C37.3466 28.3264 37.3901 28.436 37.4284 28.5485C37.4668 28.661 37.4234 28.7604 37.2982 28.8466C37.2516 28.8939 37.1765 28.9678 37.0731 29.0683C36.9718 29.1608 36.8939 29.2297 36.8392 29.2749C36.7248 29.4492 36.5954 29.6153 36.4512 29.7732C36.315 29.9332 36.1644 30.115 35.9996 30.3186C35.8368 30.5142 35.6513 30.7635 35.4431 31.0664C35.3312 31.1988 35.2313 31.3343 35.1433 31.473C35.0575 31.6038 34.9934 31.6848 34.9509 31.7162C34.8566 31.8788 34.77 31.9965 34.691 32.0694C34.6199 32.1443 34.5431 32.2732 34.4605 32.456C34.4605 32.456 34.5109 32.4267 34.6117 32.3682C34.7205 32.3117 34.8505 32.2396 35.0017 32.1518C35.4012 31.8996 35.7477 31.7186 36.0411 31.6088C36.3346 31.499 36.586 31.4676 36.7953 31.5146C36.9089 31.5362 37.021 31.5958 37.1316 31.6933C37.2502 31.793 37.3525 31.9054 37.4387 32.0306C37.527 32.1479 37.5773 32.2635 37.5897 32.3777C37.6154 32.538 37.5976 32.7337 37.5363 32.9648C37.4772 33.1878 37.38 33.4094 37.2449 33.6294C37.1178 33.8515 36.9582 34.0352 36.7662 34.1804C36.6384 34.3085 36.4918 34.4274 36.3262 34.537C36.1708 34.6408 36.0408 34.7129 35.9363 34.7534C35.8376 34.804 35.7389 34.8545 35.6402 34.9051C35.5516 34.9498 35.4781 34.9858 35.4197 35.0129C35.2971 35.0572 35.1987 35.0908 35.1244 35.1137C35.0522 35.1286 34.955 35.1413 34.8329 35.1515C34.6339 35.2266 34.3796 35.253 34.07 35.2306C33.7604 35.2082 33.4569 35.1789 33.1595 35.1426ZM33.6992 34.3136C33.755 34.3284 33.8577 34.3428 34.0075 34.357C34.1652 34.3732 34.3205 34.3504 34.4733 34.2886C34.8985 34.1967 35.2533 34.0648 35.5377 33.8929C35.83 33.7232 36.0546 33.5354 36.2115 33.3297C36.3684 33.124 36.4632 32.9274 36.4959 32.74C36.5285 32.5525 36.4437 32.4703 36.2415 32.4934C36.0493 32.5106 35.7163 32.6569 35.2425 32.932C35.0249 33.0449 34.8334 33.1561 34.6679 33.2657C34.5024 33.3753 34.3308 33.4918 34.153 33.6153C34.074 33.6881 33.9992 33.745 33.9287 33.786C33.8682 33.8211 33.8255 33.8695 33.8006 33.9311C33.6772 34.1713 33.6434 34.2988 33.6992 34.3136ZM40.9138 36.9434C40.882 36.9349 40.8137 36.887 40.7089 36.7995C40.6063 36.7041 40.5433 36.6362 40.5199 36.5959C40.481 36.5173 40.4632 36.4401 40.4662 36.3642C40.4714 36.2803 40.5036 36.1268 40.5628 35.9037C40.6304 35.6487 40.7583 35.3756 40.9464 35.0844C41.1366 34.7852 41.427 34.3975 41.8177 33.9212L42.5708 33.0592C42.6254 33.014 42.674 32.9757 42.7164 32.9443C42.761 32.9049 42.8084 32.8706 42.8588 32.8414C42.8748 32.8456 42.8947 32.8509 42.9186 32.8572C42.9505 32.8657 42.9733 32.876 42.9871 32.8882C43.0567 32.9152 43.1566 32.9886 43.2869 33.1084C43.4251 33.2303 43.489 33.3752 43.4786 33.543C43.4512 33.6466 43.4025 33.7658 43.3326 33.9008C43.2648 34.0278 43.1216 34.1817 42.9031 34.3625C42.8182 34.4253 42.7239 34.5239 42.62 34.6584C42.524 34.795 42.4342 34.9247 42.3505 35.0475C42.3383 35.0613 42.3038 35.0948 42.2471 35.1479C42.2004 35.1953 42.1527 35.2466 42.1039 35.3019C42.0573 35.3492 42.0318 35.3808 42.0276 35.3967L41.9513 35.4916L42.5983 35.126C43.0519 34.8625 43.4223 34.6879 43.7095 34.602C43.9966 34.5161 44.2207 34.5073 44.3816 34.5756C44.5506 34.646 44.6636 34.7826 44.7207 34.9853C44.7553 35.0798 44.7719 35.178 44.7705 35.2799C44.7711 35.3739 44.7596 35.4817 44.7359 35.6034C44.7121 35.725 44.668 35.8753 44.6035 36.0543L44.4228 36.7356C44.5847 36.7359 44.7087 36.7346 44.7947 36.7319C44.8829 36.7211 44.9699 36.7144 45.0559 36.7116C45.1239 36.7126 45.1919 36.7135 45.2598 36.7145C45.3358 36.7176 45.4266 36.7289 45.5323 36.7484C45.4968 36.8499 45.4192 36.9657 45.2994 37.096C45.1796 37.2262 45.0398 37.3512 44.8801 37.4709C44.7285 37.5927 44.5711 37.6874 44.4082 37.755C44.2533 37.8248 44.12 37.8449 44.0085 37.8153C43.9049 37.7879 43.7938 37.7243 43.6753 37.6246C43.5589 37.517 43.4793 37.3509 43.4365 37.1264C43.4321 37.0143 43.4319 36.8864 43.436 36.7425C43.44 36.5986 43.4621 36.4509 43.5023 36.2995L43.6417 35.7737C43.6544 35.7259 43.6589 35.6929 43.6551 35.6749C43.6615 35.651 43.6607 35.638 43.6527 35.6359C43.6208 35.6274 43.4951 35.6836 43.2754 35.8044C43.0637 35.9274 42.8459 36.0572 42.622 36.194C42.1541 36.4792 41.7723 36.6807 41.4767 36.7985C41.1891 36.9183 41.0015 36.9666 40.9138 36.9434ZM46.8127 39.058C46.707 39.0384 46.6265 39.0043 46.5713 38.9555C46.5139 38.9147 46.4448 38.8538 46.3639 38.7726C46.2246 38.5907 46.1216 38.3843 46.0549 38.1534C45.9962 37.9246 45.9887 37.7436 46.0326 37.6102C46.0676 37.5428 46.0845 37.479 46.0833 37.419C46.0902 37.3611 46.0936 37.3322 46.0936 37.3322C46.0563 37.2797 46.0467 37.2515 46.0648 37.2478C46.085 37.2361 46.1032 37.2154 46.1197 37.1856C46.1876 37.1866 46.2072 37.1449 46.1784 37.0605C46.1714 36.9904 46.2214 36.8502 46.3284 36.6397C46.4455 36.4235 46.5742 36.2274 46.7147 36.0514C46.7778 35.9744 46.8642 35.8736 46.9739 35.7492C47.0916 35.6269 47.2173 35.5068 47.351 35.3887C47.4867 35.2627 47.6061 35.1664 47.709 35.0999C47.9371 34.9472 48.1358 34.8251 48.305 34.7335C48.4823 34.6441 48.667 34.5907 48.8592 34.5735C49.0354 34.552 49.2022 34.5664 49.3594 34.6166C49.5246 34.669 49.6572 34.7638 49.7572 34.9012C49.9337 35.0077 50.0817 35.1408 50.2014 35.3004C50.3232 35.4521 50.3845 35.6389 50.3853 35.8609C50.3878 36.1089 50.3348 36.389 50.2264 36.7014C50.128 37.0079 49.8859 37.3743 49.4999 37.8007C49.2661 38.0713 49.0482 38.2821 48.8461 38.4332C48.6519 38.5864 48.428 38.7231 48.1744 38.8435C47.9892 38.9308 47.7644 38.9906 47.5 39.0228C47.2356 39.055 47.0065 39.0667 46.8127 39.058ZM48.3311 37.5291C48.4727 37.4131 48.5894 37.2948 48.6811 37.1742C48.7807 37.0556 48.8902 36.8842 49.0093 36.66C49.0565 36.5787 49.097 36.4743 49.1308 36.3468C49.1725 36.2215 49.1992 36.1049 49.2107 35.9971C49.2324 35.8834 49.2203 35.8163 49.1746 35.7956C49.0816 35.7283 48.974 35.6998 48.8519 35.71C48.7399 35.7144 48.5911 35.7773 48.4054 35.8986C48.2399 36.0082 48.1004 36.1162 47.9869 36.2225C47.8835 36.323 47.7767 36.4525 47.6664 36.6109C47.5663 36.7634 47.4444 36.9656 47.3009 37.2175C47.1674 37.4635 47.1074 37.6736 47.1209 37.8477C47.1424 38.024 47.2503 38.0995 47.4446 38.0743C47.6389 38.049 47.9344 37.8673 48.3311 37.5291ZM50.9317 39.6515C50.8122 39.6198 50.7159 39.5005 50.6429 39.2935C50.572 39.0785 50.5356 38.8301 50.5336 38.5481C50.5396 38.2683 50.5844 38.003 50.6679 37.7523C50.7355 37.4973 50.8014 37.2973 50.8654 37.1523C50.9396 37.0014 51.0126 36.8545 51.0846 36.7115C51.1212 36.6701 51.1437 36.6334 51.1522 36.6015C51.1686 36.5718 51.1903 36.5221 51.2173 36.4525C51.2523 36.385 51.3118 36.2729 51.3961 36.1162C51.4639 35.9892 51.5253 35.8861 51.5804 35.8069C51.6435 35.7298 51.6912 35.6785 51.7236 35.653C51.853 35.5509 51.9806 35.5037 52.1065 35.5115C52.2344 35.5113 52.3388 35.5518 52.4197 35.6329C52.5084 35.7162 52.546 35.8157 52.5324 35.9314C52.5696 35.984 52.5692 36.0819 52.5312 36.2253C52.5032 36.3629 52.4572 36.5042 52.3932 36.6493C52.3312 36.7863 52.2679 36.8804 52.2032 36.9315C52.1767 36.9671 52.1293 37.0654 52.061 37.2263C52.0007 37.3894 51.9343 37.5594 51.8618 37.7363C51.7973 37.9154 51.7382 38.0575 51.6848 38.1627C51.6228 38.2998 51.6065 38.3935 51.6358 38.4439C51.6751 38.4885 51.7643 38.4737 51.9033 38.3997C52.0524 38.3199 52.2595 38.1659 52.5247 37.9378C52.7475 37.741 52.9127 37.5844 53.0203 37.468C53.1359 37.3537 53.2284 37.246 53.2978 37.145C53.3752 37.0462 53.4619 36.9284 53.5578 36.7918C53.6314 36.6749 53.6948 36.5809 53.7478 36.5096C53.8087 36.4405 53.8594 36.3943 53.8997 36.3708C54.0211 36.2666 54.1504 36.2455 54.2875 36.3074C54.4346 36.3635 54.5476 36.4361 54.6263 36.5252C54.6965 36.6461 54.7174 36.7924 54.689 36.9639C54.6706 37.1296 54.5883 37.2954 54.442 37.4613C54.3444 37.5718 54.2405 37.7063 54.1303 37.8647C54.028 38.0252 53.9337 38.1878 53.8474 38.3525C53.7691 38.5194 53.713 38.6665 53.6792 38.794C53.6369 38.9533 53.6315 39.0542 53.6628 39.0967C53.7043 39.1332 53.7569 39.16 53.8206 39.1769C53.9163 39.2023 54.0163 39.1947 54.1209 39.1542C54.2275 39.1057 54.3878 39.016 54.6016 38.8851C54.6923 38.8324 54.8085 38.7481 54.9501 38.6322C55.0917 38.5162 55.2315 38.3913 55.3693 38.2573C55.5152 38.1254 55.6358 38.0082 55.7312 37.9055C55.8368 37.7971 55.8937 37.7269 55.9022 37.695C55.9149 37.6472 55.9687 37.589 56.0636 37.5204C56.1284 37.4693 56.1769 37.431 56.2092 37.4055C56.2517 37.3741 56.318 37.3491 56.4083 37.3304C56.4805 37.3154 56.5532 37.3305 56.6266 37.3755C56.702 37.4126 56.7592 37.4704 56.798 37.5489C56.8294 37.5913 56.8362 37.6784 56.8183 37.8101C56.8105 37.9359 56.7939 38.0467 56.7686 38.1423C56.7214 38.2236 56.6528 38.3376 56.5627 38.4843C56.4748 38.623 56.3839 38.7566 56.2901 38.8852C56.2064 39.008 56.1382 39.088 56.0857 39.1253C56.0454 39.1487 55.9738 39.1936 55.8709 39.2601C55.7701 39.3187 55.6751 39.3873 55.586 39.466C55.3234 39.6522 55.1388 39.7695 55.0321 39.818C54.9255 39.8665 54.8318 39.9141 54.7512 39.961C54.5395 40.0839 54.3123 40.1686 54.0697 40.2152C53.8293 40.2537 53.6113 40.2556 53.4159 40.2208C53.2225 40.1781 53.0807 40.1021 52.9902 39.9928C52.7771 39.7998 52.7106 39.5519 52.7909 39.2492C52.8078 39.1854 52.8107 39.1265 52.7994 39.0723C52.7983 39.0123 52.7977 38.9823 52.7977 38.9823C52.7659 38.9739 52.7199 38.9702 52.6599 38.9714C52.6079 38.9746 52.5413 39.0167 52.4602 39.0975C52.3525 39.2139 52.1921 39.3206 51.9787 39.4175C51.7755 39.5086 51.5736 39.5787 51.3729 39.6278C51.1744 39.669 51.0273 39.6769 50.9317 39.6515Z" fill="#181818"/>
<path d="M3.03753 58.6005L2.75582 59.227L3.03753 58.6005ZM0.756203 57.0421C0.401529 57.1767 0.223156 57.5734 0.3578 57.9281L2.55193 63.7078C2.68658 64.0625 3.08325 64.2409 3.43792 64.1062C3.7926 63.9716 3.97097 63.5749 3.83632 63.2202L1.88599 58.0827L7.02355 56.1323C7.37823 55.9977 7.5566 55.601 7.42196 55.2463C7.28732 54.8917 6.89064 54.7133 6.53597 54.8479L0.756203 57.0421ZM3.31924 57.974L1.28171 57.0578L0.718283 58.3108L2.75582 59.227L3.31924 57.974ZM34.415 43.8701C30.4101 56.9748 15.8168 63.5938 3.31924 57.974L2.75582 59.227C16.0078 65.186 31.4822 58.1674 35.7288 44.2717L34.415 43.8701Z" fill="#181818"/>
</svg>
