<svg width="118" height="38" viewBox="0 0 118 38" fill="none" xmlns="http://www.w3.org/2000/svg">
<path d="M21.1873 10.1447V27.5H16.9598V17.0918L13.0783 27.5H9.66659L5.76042 17.0671V27.5H1.53286V10.1447H6.52682L11.3972 22.1599L16.2181 10.1447H21.1873Z" fill="black"/>
<path d="M54.889 20.5777C54.889 19.1602 55.1527 17.9159 55.6802 16.8446C56.2241 15.7733 56.9575 14.9492 57.8805 14.3723C58.8034 13.7954 59.8336 13.507 60.9708 13.507C61.8773 13.507 62.7014 13.6966 63.4431 14.0756C64.2012 14.4547 64.7946 14.9657 65.2231 15.6084V9.20529H69.4506V27.5H65.2231V25.5222C64.8275 26.1815 64.2589 26.7089 63.5172 27.1044C62.792 27.5 61.9432 27.6978 60.9708 27.6978C59.8336 27.6978 58.8034 27.4094 57.8805 26.8325C56.9575 26.2391 56.2241 25.4068 55.6802 24.3355C55.1527 23.2477 54.889 21.9951 54.889 20.5777ZM65.2231 20.6024C65.2231 19.5476 64.9264 18.7152 64.3331 18.1054C63.7562 17.4956 63.0475 17.1907 62.2069 17.1907C61.3664 17.1907 60.6494 17.4956 60.0561 18.1054C59.4792 18.6988 59.1908 19.5228 59.1908 20.5777C59.1908 21.6325 59.4792 22.4731 60.0561 23.0994C60.6494 23.7092 61.3664 24.0141 62.2069 24.0141C63.0475 24.0141 63.7562 23.7092 64.3331 23.0994C64.9264 22.4896 65.2231 21.6572 65.2231 20.6024Z" fill="black"/>
<path d="M83.0245 18.5999C84.0299 18.8141 84.8375 19.3168 85.4473 20.1079C86.0572 20.8826 86.3621 21.7726 86.3621 22.778C86.3621 24.2284 85.8511 25.3821 84.8293 26.2391C83.8239 27.0797 82.4147 27.5 80.6017 27.5H72.5174V10.1447H80.3298C82.0933 10.1447 83.4695 10.5485 84.4584 11.3562C85.4638 12.1638 85.9665 13.2598 85.9665 14.6443C85.9665 15.6661 85.6946 16.5149 85.1507 17.1907C84.6232 17.8664 83.9145 18.3362 83.0245 18.5999ZM76.745 17.166H79.5139C80.2061 17.166 80.7336 17.0176 81.0962 16.721C81.4752 16.4078 81.6648 15.9546 81.6648 15.3612C81.6648 14.7679 81.4752 14.3146 81.0962 14.0015C80.7336 13.6883 80.2061 13.5317 79.5139 13.5317H76.745V17.166ZM79.86 24.0883C80.5687 24.0883 81.1126 23.9317 81.4917 23.6186C81.8873 23.2889 82.0851 22.8192 82.0851 22.2094C82.0851 21.5995 81.879 21.1216 81.467 20.7755C81.0714 20.4293 80.5193 20.2563 79.8106 20.2563H76.745V24.0883H79.86ZM95.0936 27.6978C93.7421 27.6978 92.5224 27.4094 91.4346 26.8325C90.3633 26.2556 89.5145 25.4315 88.8882 24.3602C88.2784 23.2889 87.9735 22.0363 87.9735 20.6024C87.9735 19.185 88.2866 17.9406 88.9129 16.8693C89.5392 15.7815 90.3963 14.9492 91.4841 14.3723C92.5719 13.7954 93.7915 13.507 95.143 13.507C96.4945 13.507 97.7142 13.7954 98.802 14.3723C99.8898 14.9492 100.747 15.7815 101.373 16.8693C101.999 17.9406 102.313 19.185 102.313 20.6024C102.313 22.0198 101.991 23.2724 101.348 24.3602C100.722 25.4315 99.8568 26.2556 98.7525 26.8325C97.6647 27.4094 96.4451 27.6978 95.0936 27.6978ZM95.0936 24.0388C95.9012 24.0388 96.5852 23.7422 97.1456 23.1488C97.7224 22.5555 98.0108 21.7067 98.0108 20.6024C98.0108 19.4981 97.7307 18.6493 97.1703 18.056C96.6264 17.4626 95.9506 17.166 95.143 17.166C94.3189 17.166 93.6349 17.4626 93.091 18.056C92.5472 18.6328 92.2752 19.4816 92.2752 20.6024C92.2752 21.7067 92.5389 22.5555 93.0663 23.1488C93.6102 23.7422 94.286 24.0388 95.0936 24.0388Z" fill="#004FFF"/>
<path d="M112.72 25.2226L110.075 21.3904L102.446 34.5829H97.8714L107.825 18.1759L103.152 11.426H107.899L110.545 15.2337L112.77 11.426H117.344L112.72 18.3742L117.468 25.2226H112.72Z" fill="#004FFF"/>
<path fill-rule="evenodd" clip-rule="evenodd" d="M37.7453 20.4662C37.7453 30.0455 23.3764 30.0455 23.3764 20.4662C23.3764 10.887 37.7453 10.887 37.7453 20.4662ZM34.4953 24.1403C34.4953 25.1053 26.8671 25.1053 26.8671 24.1403C26.8671 23.7102 28.3827 23.4718 30.0627 23.4253C32.1519 23.3673 34.4954 23.6055 34.4954 24.1403H34.4953ZM29.5026 19.8173H31.7217C30.3449 23.419 29.4929 19.8249 29.5026 19.8173ZM34.149 16.3026C34.5703 16.3026 34.9118 16.6489 34.9118 17.0759C34.9118 19.3522 32.0221 16.3026 34.149 16.3026ZM27.2142 16.3026C29.3407 16.3026 26.4514 19.3522 26.4514 17.0759C26.4514 16.6489 26.7927 16.3026 27.2142 16.3026Z" fill="black"/>
<path fill-rule="evenodd" clip-rule="evenodd" d="M53.525 20.4662C53.525 30.0455 39.156 30.0455 39.156 20.4662C39.156 10.887 53.525 10.887 53.525 20.4662ZM50.275 24.1403C50.275 25.1053 42.6467 25.1053 42.6467 24.1403C42.6467 23.7102 44.1624 23.4718 45.8424 23.4253C47.9316 23.3673 50.2751 23.6055 50.2751 24.1403H50.275ZM45.2823 19.8173H47.5014C46.1244 23.419 45.2726 19.8249 45.2823 19.8173ZM49.9285 16.3026C50.3498 16.3026 50.6913 16.6489 50.6913 17.0759C50.6913 19.3522 47.8016 16.3026 49.9285 16.3026ZM42.9937 16.3026C45.1203 16.3026 42.2309 19.3522 42.2309 17.0759C42.2309 16.6489 42.5722 16.3026 42.9937 16.3026Z" fill="black"/>
</svg>
