<svg width="28" height="31" viewBox="0 0 28 31" fill="none" xmlns="http://www.w3.org/2000/svg">
<path d="M13.0506 15.0203L0.432495 28.4129C0.432969 28.4157 0.433917 28.418 0.434391 28.4208C0.821354 29.875 2.14959 30.9458 3.72601 30.9458C4.35617 30.9458 4.94781 30.7754 5.45519 30.4763L5.49549 30.4527L19.6987 22.2569L13.0506 15.0203" fill="#EA4335"/>
<path d="M25.8163 12.7396L25.8042 12.7313L19.6723 9.17661L12.764 15.3239L19.6964 22.2554L25.7959 18.736C26.8653 18.1587 27.5913 17.0313 27.5913 15.7313C27.5913 14.4406 26.875 13.3188 25.8163 12.7396" fill="#FBBC04"/>
<path d="M0.432021 2.99452C0.356169 3.27422 0.316299 3.5672 0.316299 3.87143V27.5367C0.316299 27.8404 0.355695 28.1344 0.432495 28.4131L13.4848 15.3631L0.432021 2.99452Z" fill="#4285F4"/>
<path d="M13.1436 15.7036L19.6747 9.17443L5.48755 0.949005C4.97187 0.640145 4.37004 0.461895 3.72601 0.461895C2.14959 0.461895 0.819577 1.53461 0.432496 2.99061C0.432022 2.99203 0.432022 2.99298 0.432022 2.99428L13.1436 15.7036Z" fill="#34A853"/>
</svg>
