<svg width="15" height="16" viewBox="0 0 15 16" fill="none" xmlns="http://www.w3.org/2000/svg">
<path fill-rule="evenodd" clip-rule="evenodd" d="M14.7451 7.96619C14.7451 17.5455 0.376221 17.5455 0.376221 7.96619C0.376221 -1.61298 14.7451 -1.61298 14.7451 7.96619ZM11.4951 11.6403C11.4951 12.6053 3.86693 12.6053 3.86693 11.6403C3.86693 11.2102 5.38256 10.9718 7.06257 10.9253C9.15181 10.8673 11.4953 11.1055 11.4953 11.6403H11.4951ZM6.50251 7.31725H8.7216C7.34475 10.919 6.49277 7.32485 6.50251 7.31725ZM11.1489 3.80258C11.5701 3.80258 11.9116 4.14886 11.9116 4.57593C11.9116 6.85218 9.02195 3.80258 11.1489 3.80258ZM4.21403 3.80258C6.34061 3.80258 3.45126 6.85218 3.45126 4.57593C3.45126 4.14886 3.79258 3.80258 4.21403 3.80258Z" fill="#004FFF"/>
</svg>
